<svg viewBox="0 0 120 120" xmlns="http://www.w3.org/2000/svg"><g fill="#3498db"><path d="M60 6a54 54 0 1 0 54 54A54.06 54.06 0 0 0 60 6zm0 104a50 50 0 1 1 50-50 50.06 50.06 0 0 1-50 50z"/><path d="M76 25.39H44a6.31 6.31 0 0 0-6.31 6.3V88.3A6.32 6.32 0 0 0 44 94.61h32a6.32 6.32 0 0 0 6.31-6.31V31.69a6.31 6.31 0 0 0-6.31-6.3zm-32 4h32a2.31 2.31 0 0 1 2.31 2.3v.62H41.65v-.62a2.31 2.31 0 0 1 2.35-2.3zm34.39 6.92v44.17H41.65V36.31zM76 90.61H44a2.31 2.31 0 0 1-2.31-2.31v-3.82h36.7v3.82A2.31 2.31 0 0 1 76 90.61z"/><path d="M60 85a2.55 2.55 0 1 0 2.55 2.54A2.55 2.55 0 0 0 60 85zm-3.48-15.21l15.33-15.33-2.83-2.83-12.5 12.5-5.54-5.54-2.83 2.82z"/></g></svg>