<svg viewBox="0 0 120 120" xmlns="http://www.w3.org/2000/svg"><g fill="#3498db"><path d="M60 6a54 54 0 1 0 54 54A54.06 54.06 0 0 0 60 6zm0 104a50 50 0 1 1 50-50 50.06 50.06 0 0 1-50 50z"/><path d="M85.27 44.1a11.21 11.21 0 0 0-2 0A13.62 13.62 0 0 0 69.89 33c-2.69 0-7.1-.69-8.48-2.07L60 29.48l-1.41 1.41c-1.38 1.38-5.79 2-8.47 2.07a13.62 13.62 0 0 0-13.38 11.19 10.35 10.35 0 0 0-2 0 10.59 10.59 0 0 0-9.79 9.79 10.51 10.51 0 0 0 6.49 10.5V79a6.93 6.93 0 0 0 4.72 6.56 4.81 4.81 0 0 0-.11 1 2.89 2.89 0 0 0 2.13 2.7 7.75 7.75 0 0 0 2.52.39c3.43 0 4.65-1.67 4.65-3.09a4.48 4.48 0 0 0-.07-.64h29.45a4.48 4.48 0 0 0-.07.64 2.91 2.91 0 0 0 2.14 2.7 7.7 7.7 0 0 0 2.51.39C82.75 89.69 84 88 84 86.6a4.81 4.81 0 0 0-.11-1 6.93 6.93 0 0 0 4.68-6.6V64.39a10.56 10.56 0 0 0-3.3-20.29zM50.14 37c.72 0 6.37-.12 9.86-2.17 3.49 2.01 9.14 2.17 9.88 2.17a9.62 9.62 0 0 1 9.53 8.44 10.52 10.52 0 0 0-5.41 9.2v8.46a102 102 0 0 0-28 0v-8.46a10.59 10.59 0 0 0-3.36-7.73 10.81 10.81 0 0 0-2.04-1.51 9.61 9.61 0 0 1 9.54-8.4zM46 67.14a97.94 97.94 0 0 1 27.92 0v2.77a1.06 1.06 0 0 1-1.06 1H47.1a1.06 1.06 0 0 1-1.06-1zm43.29-8a6.54 6.54 0 0 1-4.81 2.09V79a2.93 2.93 0 0 1-2.84 3H38.36a2.93 2.93 0 0 1-2.93-3V61.2A6.57 6.57 0 0 1 35 48.09a6.57 6.57 0 0 1 7 6.55v15.27a5.06 5.06 0 0 0 5.06 5H72.9a5.06 5.06 0 0 0 5.06-5V54.64a6.57 6.57 0 0 1 7-6.55 6.57 6.57 0 0 1 4.33 11z"/></g></svg>